<svg width="17" height="17" viewBox="0 0 17 17" fill="none" xmlns="http://www.w3.org/2000/svg">
<path id="Vector" d="M0.888245 8.46323C0.888245 6.28175 1.67144 4.41385 3.23783 2.85954C4.80422 1.30523 6.68663 0.528076 8.88507 0.528076C11.056 0.528076 12.9178 1.30523 14.4705 2.85954C16.0231 4.41385 16.7995 6.28175 16.7995 8.46323C16.7995 10.6447 16.0231 12.5194 14.4705 14.0874C12.9178 15.6553 11.056 16.4393 8.88507 16.4393C6.71411 16.4393 4.83857 15.6553 3.25844 14.0874C1.67831 12.5194 0.888245 10.6447 0.888245 8.46323ZM4.763 8.46323C4.763 9.60851 5.16146 10.5765 5.9584 11.3673C6.78281 12.1854 7.75837 12.5944 8.88507 12.5944C10.0118 12.5944 10.9873 12.1854 11.8117 11.3673C12.6362 10.5493 13.0484 9.58124 13.0484 8.46323C13.0484 7.34522 12.6362 6.384 11.8117 5.57958C10.9873 4.77516 10.0118 4.37295 8.88507 4.37295C7.73089 4.37295 6.75533 4.76834 5.9584 5.55913C5.16146 6.34992 4.763 7.31795 4.763 8.46323Z" fill="#EFAA82"/>
</svg>
